<mxfile host="drawio-plugin" modified="2021-09-26T19:49:54.153Z" agent="5.0 (X11; Linux x86_64) AppleWebKit/537.36 (KHTML, like Gecko) Chrome/89.0.4389.114 Safari/537.36" etag="UFMEJp53QiHHKxmymoQh" version="14.7.4" type="embed"><diagram id="23iRSUPoRavnBvh4doch" name="Page-1"><mxGraphModel dx="693" dy="1550" grid="1" gridSize="10" guides="1" tooltips="1" connect="1" arrows="1" fold="1" page="1" pageScale="1" pageWidth="827" pageHeight="1169" math="0" shadow="0"><root><mxCell id="0"/><mxCell id="1" parent="0"/><mxCell id="2" value="&lt;p style=&quot;margin: 0px ; margin-top: 4px ; text-align: center&quot;&gt;&lt;b&gt;Reustarant&lt;/b&gt;&lt;/p&gt;&lt;hr size=&quot;1&quot;&gt;&lt;p style=&quot;margin: 0px ; margin-left: 4px&quot;&gt;+ count_tables: int&lt;/p&gt;&lt;p style=&quot;margin: 0px ; margin-left: 4px&quot;&gt;+ free_tables: int&lt;/p&gt;&lt;p style=&quot;margin: 0px ; margin-left: 4px&quot;&gt;+ busy_tables: set&lt;/p&gt;&lt;p style=&quot;margin: 0px ; margin-left: 4px&quot;&gt;+ barmen: Barmen&lt;/p&gt;&lt;p style=&quot;margin: 0px ; margin-left: 4px&quot;&gt;+ waiter: Waiter&lt;/p&gt;&lt;p style=&quot;margin: 0px ; margin-left: 4px&quot;&gt;+ chef: Chef&lt;/p&gt;&lt;p style=&quot;margin: 0px ; margin-left: 4px&quot;&gt;+ online_operator: OnlineOperator&lt;/p&gt;&lt;p style=&quot;margin: 0px ; margin-left: 4px&quot;&gt;+ menu: Menu&lt;/p&gt;&lt;p style=&quot;margin: 0px ; margin-left: 4px&quot;&gt;+ guests: list&lt;/p&gt;&lt;hr size=&quot;1&quot;&gt;&lt;p style=&quot;margin: 0px ; margin-left: 4px&quot;&gt;# add_tables(count: int)&lt;/p&gt;&lt;p style=&quot;margin: 0px ; margin-left: 4px&quot;&gt;+ update_free_tables()&lt;/p&gt;&lt;p style=&quot;margin: 0px ; margin-left: 4px&quot;&gt;+ update_busy_tables()&lt;/p&gt;&lt;p style=&quot;margin: 0px ; margin-left: 4px&quot;&gt;+ hire_employees()&lt;/p&gt;" style="verticalAlign=top;align=left;overflow=fill;fontSize=12;fontFamily=Helvetica;html=1;" parent="1" vertex="1"><mxGeometry x="190" y="-440" width="190" height="230" as="geometry"/></mxCell><mxCell id="11" value="&lt;p style=&quot;margin: 0px ; margin-top: 4px ; text-align: center&quot;&gt;&lt;b&gt;Employee&lt;/b&gt;&lt;/p&gt;&lt;hr size=&quot;1&quot;&gt;&lt;p style=&quot;margin: 0px ; margin-left: 4px&quot;&gt;+ name: str&lt;/p&gt;&lt;p style=&quot;margin: 0px ; margin-left: 4px&quot;&gt;- age: age&lt;/p&gt;&lt;p style=&quot;margin: 0px ; margin-left: 4px&quot;&gt;- birthday: date&lt;/p&gt;&lt;hr size=&quot;1&quot;&gt;&lt;p style=&quot;margin: 0px ; margin-left: 4px&quot;&gt;+ year_is(year: int)&lt;/p&gt;&lt;p style=&quot;margin: 0px ; margin-left: 4px&quot;&gt;+ define_age_employee(birthday: date, divider: int)&lt;/p&gt;" style="verticalAlign=top;align=left;overflow=fill;fontSize=12;fontFamily=Helvetica;html=1;" parent="1" vertex="1"><mxGeometry x="140" y="-70" width="280" height="120" as="geometry"/></mxCell><mxCell id="12" value="&lt;p style=&quot;margin: 0px ; margin-top: 4px ; text-align: center&quot;&gt;&lt;b&gt;Chef&lt;/b&gt;&lt;/p&gt;&lt;hr size=&quot;1&quot;&gt;&lt;p style=&quot;margin: 0px ; margin-left: 4px&quot;&gt;&lt;br&gt;&lt;/p&gt;&lt;hr size=&quot;1&quot;&gt;&lt;p style=&quot;margin: 0px ; margin-left: 4px&quot;&gt;+ take_order(&lt;span style=&quot;color: rgb(114 , 115 , 122) ; background-color: rgb(43 , 43 , 43) ; font-family: &amp;#34;jetbrains mono&amp;#34; , monospace&quot;&gt;Union[BaseOrder,&amp;nbsp;&lt;/span&gt;&lt;/p&gt;&lt;p style=&quot;margin: 0px ; margin-left: 4px&quot;&gt;&lt;span style=&quot;color: rgb(114 , 115 , 122) ; background-color: rgb(43 , 43 , 43) ; font-family: &amp;#34;jetbrains mono&amp;#34; , monospace&quot;&gt;OnlineOrder]&lt;/span&gt;&lt;span&gt;)&lt;/span&gt;&lt;/p&gt;&lt;p style=&quot;margin: 0px ; margin-left: 4px&quot;&gt;+ cook(&lt;span style=&quot;color: rgb(114 , 115 , 122) ; background-color: rgb(43 , 43 , 43) ; font-family: &amp;#34;jetbrains mono&amp;#34; , monospace&quot;&gt;Union[BaseOrder,&amp;nbsp;&lt;/span&gt;&lt;/p&gt;&lt;p style=&quot;margin: 0px ; margin-left: 4px&quot;&gt;&lt;span style=&quot;color: rgb(114 , 115 , 122) ; background-color: rgb(43 , 43 , 43) ; font-family: &amp;#34;jetbrains mono&amp;#34; , monospace&quot;&gt;OnlineOrder]&lt;/span&gt;&lt;span&gt;)&lt;/span&gt;&lt;/p&gt;" style="verticalAlign=top;align=left;overflow=fill;fontSize=12;fontFamily=Helvetica;html=1;" parent="1" vertex="1"><mxGeometry x="7" y="160" width="220" height="140" as="geometry"/></mxCell><mxCell id="13" value="&lt;p style=&quot;margin: 0px ; margin-top: 4px ; text-align: center&quot;&gt;&lt;b&gt;Waiter&lt;/b&gt;&lt;/p&gt;&lt;hr size=&quot;1&quot;&gt;&lt;p style=&quot;margin: 0px ; margin-left: 4px&quot;&gt;+ orders: dict()&lt;/p&gt;&lt;hr size=&quot;1&quot;&gt;&lt;p style=&quot;margin: 0px ; margin-left: 4px&quot;&gt;+ create_order(order: list,&lt;/p&gt;&lt;p style=&quot;margin: 0px ; margin-left: 4px&quot;&gt;table_number: int)&lt;/p&gt;" style="verticalAlign=top;align=left;overflow=fill;fontSize=12;fontFamily=Helvetica;html=1;" parent="1" vertex="1"><mxGeometry x="240" y="160" width="160" height="90" as="geometry"/></mxCell><mxCell id="14" style="edgeStyle=orthogonalEdgeStyle;rounded=0;orthogonalLoop=1;jettySize=auto;html=1;exitX=1;exitY=0.5;exitDx=0;exitDy=0;entryX=0.994;entryY=0.44;entryDx=0;entryDy=0;entryPerimeter=0;" parent="1" source="11" target="11" edge="1"><mxGeometry relative="1" as="geometry"/></mxCell><mxCell id="15" value="&lt;p style=&quot;margin: 0px ; margin-top: 4px ; text-align: center&quot;&gt;&lt;b&gt;Barmen&lt;/b&gt;&lt;/p&gt;&lt;hr size=&quot;1&quot;&gt;&lt;p style=&quot;margin: 0px ; margin-left: 4px&quot;&gt;&lt;br&gt;&lt;/p&gt;&lt;hr size=&quot;1&quot;&gt;&lt;p style=&quot;margin: 0px 0px 0px 4px&quot;&gt;+ take_order(&lt;span style=&quot;color: rgb(114 , 115 , 122) ; background-color: rgb(43 , 43 , 43) ; font-family: &amp;#34;jetbrains mono&amp;#34; , monospace&quot;&gt;Union[BaseOrder,&amp;nbsp;&lt;/span&gt;&lt;/p&gt;&lt;p style=&quot;margin: 0px 0px 0px 4px&quot;&gt;&lt;span style=&quot;color: rgb(114 , 115 , 122) ; background-color: rgb(43 , 43 , 43) ; font-family: &amp;#34;jetbrains mono&amp;#34; , monospace&quot;&gt;OnlineOrder]&lt;/span&gt;)&lt;/p&gt;&lt;p style=&quot;margin: 0px 0px 0px 4px&quot;&gt;+ cook(&lt;span style=&quot;color: rgb(114 , 115 , 122) ; background-color: rgb(43 , 43 , 43) ; font-family: &amp;#34;jetbrains mono&amp;#34; , monospace&quot;&gt;Union[BaseOrder,&amp;nbsp;&lt;/span&gt;&lt;/p&gt;&lt;p style=&quot;margin: 0px 0px 0px 4px&quot;&gt;&lt;span style=&quot;color: rgb(114 , 115 , 122) ; background-color: rgb(43 , 43 , 43) ; font-family: &amp;#34;jetbrains mono&amp;#34; , monospace&quot;&gt;OnlineOrder]&lt;/span&gt;)&lt;/p&gt;" style="verticalAlign=top;align=left;overflow=fill;fontSize=12;fontFamily=Helvetica;html=1;" parent="1" vertex="1"><mxGeometry x="420" y="160" width="190" height="140" as="geometry"/></mxCell><mxCell id="17" value="&lt;p style=&quot;margin: 0px ; margin-top: 4px ; text-align: center&quot;&gt;&lt;b&gt;BaseOrder&lt;/b&gt;&lt;/p&gt;&lt;hr size=&quot;1&quot;&gt;&lt;p style=&quot;margin: 0px ; margin-left: 4px&quot;&gt;+ order_id: int&lt;/p&gt;&lt;p style=&quot;margin: 0px ; margin-left: 4px&quot;&gt;+ order_status: bool&lt;/p&gt;&lt;p style=&quot;margin: 0px ; margin-left: 4px&quot;&gt;+ customer_order: list&lt;/p&gt;&lt;hr size=&quot;1&quot;&gt;&lt;p style=&quot;margin: 0px ; margin-left: 4px&quot;&gt;+ add_meal(items:list)&lt;/p&gt;&lt;p style=&quot;margin: 0px ; margin-left: 4px&quot;&gt;+ remove_meal(item:MenuItem)&lt;/p&gt;&lt;p style=&quot;margin: 0px ; margin-left: 4px&quot;&gt;+ set_status_order()&lt;/p&gt;&lt;p style=&quot;margin: 0px ; margin-left: 4px&quot;&gt;&lt;br&gt;&lt;/p&gt;" style="verticalAlign=top;align=left;overflow=fill;fontSize=12;fontFamily=Helvetica;html=1;" parent="1" vertex="1"><mxGeometry x="217" y="370" width="183" height="150" as="geometry"/></mxCell><mxCell id="18" value="&lt;p style=&quot;margin: 0px ; margin-top: 4px ; text-align: center&quot;&gt;&lt;b&gt;OnlineOrder&lt;/b&gt;&lt;/p&gt;&lt;hr size=&quot;1&quot;&gt;&lt;p style=&quot;margin: 0px ; margin-left: 4px&quot;&gt;+ time_delivery: datetime&lt;/p&gt;&lt;p style=&quot;margin: 0px ; margin-left: 4px&quot;&gt;+ addres: str&lt;/p&gt;&lt;hr size=&quot;1&quot;&gt;&lt;p style=&quot;margin: 0px ; margin-left: 4px&quot;&gt;&lt;br&gt;&lt;/p&gt;" style="verticalAlign=top;align=left;overflow=fill;fontSize=12;fontFamily=Helvetica;html=1;" parent="1" vertex="1"><mxGeometry x="220" y="580" width="160" height="90" as="geometry"/></mxCell><mxCell id="20" value="&lt;p style=&quot;margin: 0px ; margin-top: 4px ; text-align: center&quot;&gt;&lt;b&gt;OnlineOperator&lt;/b&gt;&lt;/p&gt;&lt;hr size=&quot;1&quot;&gt;&lt;p style=&quot;margin: 0px ; margin-left: 4px&quot;&gt;&lt;br&gt;&lt;/p&gt;&lt;hr size=&quot;1&quot;&gt;&lt;p style=&quot;margin: 0px ; margin-left: 4px&quot;&gt;+ create_order(order:list)&lt;/p&gt;" style="verticalAlign=top;align=left;overflow=fill;fontSize=12;fontFamily=Helvetica;html=1;" parent="1" vertex="1"><mxGeometry x="630" y="160" width="160" height="100" as="geometry"/></mxCell><mxCell id="21" value="&lt;p style=&quot;margin: 0px ; margin-top: 4px ; text-align: center&quot;&gt;&lt;b&gt;Menu&lt;/b&gt;&lt;/p&gt;&lt;hr size=&quot;1&quot;&gt;&lt;p style=&quot;margin: 0px ; margin-left: 4px&quot;&gt;+ title: str&lt;/p&gt;&lt;p style=&quot;margin: 0px ; margin-left: 4px&quot;&gt;+ menu_items: dict()&lt;/p&gt;&lt;p style=&quot;margin: 0px ; margin-left: 4px&quot;&gt;&lt;br&gt;&lt;/p&gt;&lt;hr size=&quot;1&quot;&gt;&lt;p style=&quot;margin: 0px ; margin-left: 4px&quot;&gt;+ add_menu_item(menu_item: MenuItem,&lt;/p&gt;&lt;p style=&quot;margin: 0px ; margin-left: 4px&quot;&gt;&amp;nbsp;type_item: str)&lt;/p&gt;&lt;p style=&quot;margin: 0px ; margin-left: 4px&quot;&gt;+ remove_menu_item(&lt;span&gt;menu_item: MenuItem,&lt;/span&gt;&lt;/p&gt;&lt;p style=&quot;margin: 0px ; margin-left: 4px&quot;&gt;&lt;span&gt;&amp;nbsp;type_item: str&lt;/span&gt;)&lt;/p&gt;" style="verticalAlign=top;align=left;overflow=fill;fontSize=12;fontFamily=Helvetica;html=1;" parent="1" vertex="1"><mxGeometry x="445" y="370" width="246" height="160" as="geometry"/></mxCell><mxCell id="22" value="&lt;p style=&quot;margin: 0px ; margin-top: 4px ; text-align: center&quot;&gt;&lt;b&gt;MenuItem&lt;/b&gt;&lt;/p&gt;&lt;hr size=&quot;1&quot;&gt;&lt;p style=&quot;margin: 0px ; margin-left: 4px&quot;&gt;+ name: str&lt;/p&gt;&lt;p style=&quot;margin: 0px ; margin-left: 4px&quot;&gt;+ price: float&lt;/p&gt;&lt;p style=&quot;margin: 0px ; margin-left: 4px&quot;&gt;+ portion: float&lt;/p&gt;&lt;p style=&quot;margin: 0px ; margin-left: 4px&quot;&gt;+ type_food: str&lt;/p&gt;&lt;hr size=&quot;1&quot;&gt;&lt;p style=&quot;margin: 0px ; margin-left: 4px&quot;&gt;&lt;span&gt;+ update_price(price:float)&lt;/span&gt;&lt;br&gt;&lt;/p&gt;&lt;p style=&quot;margin: 0px ; margin-left: 4px&quot;&gt;+ update_portion(portion:float)&lt;/p&gt;" style="verticalAlign=top;align=left;overflow=fill;fontSize=12;fontFamily=Helvetica;html=1;" parent="1" vertex="1"><mxGeometry x="445" y="560" width="195" height="150" as="geometry"/></mxCell><mxCell id="23" value="&lt;p style=&quot;margin: 0px ; margin-top: 4px ; text-align: center&quot;&gt;&lt;b&gt;Customer&lt;/b&gt;&lt;/p&gt;&lt;hr size=&quot;1&quot;&gt;&lt;p style=&quot;margin: 0px ; margin-left: 4px&quot;&gt;+ name: str&lt;/p&gt;&lt;p style=&quot;margin: 0px ; margin-left: 4px&quot;&gt;+ table_number: int&lt;/p&gt;&lt;p style=&quot;margin: 0px ; margin-left: 4px&quot;&gt;+ restaurant: Restaurant&lt;/p&gt;&lt;p style=&quot;margin: 0px ; margin-left: 4px&quot;&gt;+ order:&amp;nbsp;&lt;span style=&quot;background-color: rgb(43 , 43 , 43) ; color: rgb(114 , 115 , 122) ; font-family: &amp;#34;jetbrains mono&amp;#34; , monospace&quot;&gt;Union[BaseOrder,&amp;nbsp;&lt;/span&gt;&lt;/p&gt;&lt;p style=&quot;margin: 0px 0px 0px 4px&quot;&gt;&lt;span style=&quot;color: rgb(114 , 115 , 122) ; background-color: rgb(43 , 43 , 43) ; font-family: &amp;#34;jetbrains mono&amp;#34; , monospace&quot;&gt;OnlineOrder]&lt;/span&gt;&lt;/p&gt;&lt;hr size=&quot;1&quot;&gt;&lt;p style=&quot;margin: 0px ; margin-left: 4px&quot;&gt;+ make_reservation()&lt;/p&gt;&lt;p style=&quot;margin: 0px ; margin-left: 4px&quot;&gt;+ come_to_restaurant()&lt;/p&gt;&lt;p style=&quot;margin: 0px ; margin-left: 4px&quot;&gt;+ request_order(menu:Menu)&lt;/p&gt;&lt;p style=&quot;margin: 0px ; margin-left: 4px&quot;&gt;+ ask_bill()&lt;/p&gt;&lt;p style=&quot;margin: 0px ; margin-left: 4px&quot;&gt;+ pay_for_bill()&lt;/p&gt;" style="verticalAlign=top;align=left;overflow=fill;fontSize=12;fontFamily=Helvetica;html=1;" parent="1" vertex="1"><mxGeometry x="7" y="370" width="170" height="190" as="geometry"/></mxCell><mxCell id="27" value="Extends" style="endArrow=block;endSize=16;endFill=0;html=1;entryX=0.136;entryY=1.008;entryDx=0;entryDy=0;entryPerimeter=0;exitX=0.5;exitY=0;exitDx=0;exitDy=0;" parent="1" target="11" edge="1" source="12"><mxGeometry width="160" relative="1" as="geometry"><mxPoint x="120" y="150" as="sourcePoint"/><mxPoint x="210" y="100" as="targetPoint"/></mxGeometry></mxCell><mxCell id="29" value="Extends" style="endArrow=block;endSize=16;endFill=0;html=1;exitX=0.381;exitY=-0.033;exitDx=0;exitDy=0;exitPerimeter=0;entryX=0.5;entryY=1;entryDx=0;entryDy=0;" parent="1" edge="1" target="11" source="13"><mxGeometry width="160" relative="1" as="geometry"><mxPoint x="280" y="100" as="sourcePoint"/><mxPoint x="340" y="100" as="targetPoint"/></mxGeometry></mxCell><mxCell id="30" value="Extends" style="endArrow=block;endSize=16;endFill=0;html=1;exitX=0.368;exitY=-0.014;exitDx=0;exitDy=0;exitPerimeter=0;entryX=0.711;entryY=1.025;entryDx=0;entryDy=0;entryPerimeter=0;" parent="1" edge="1" target="11" source="15"><mxGeometry width="160" relative="1" as="geometry"><mxPoint x="320" y="30" as="sourcePoint"/><mxPoint x="340" y="140" as="targetPoint"/></mxGeometry></mxCell><mxCell id="31" value="Extends" style="endArrow=block;endSize=16;endFill=0;html=1;exitX=0.175;exitY=-0.05;exitDx=0;exitDy=0;exitPerimeter=0;" parent="1" source="20" edge="1"><mxGeometry width="160" relative="1" as="geometry"><mxPoint x="480" y="40" as="sourcePoint"/><mxPoint x="420" y="12" as="targetPoint"/></mxGeometry></mxCell><mxCell id="34" value="Extends" style="endArrow=block;endSize=16;endFill=0;html=1;entryX=0.41;entryY=1;entryDx=0;entryDy=0;entryPerimeter=0;exitX=0.5;exitY=0;exitDx=0;exitDy=0;" parent="1" target="17" edge="1" source="18"><mxGeometry width="160" relative="1" as="geometry"><mxPoint x="302" y="570" as="sourcePoint"/><mxPoint x="328.5" y="630" as="targetPoint"/></mxGeometry></mxCell><mxCell id="39" value="" style="endArrow=diamondThin;endFill=0;endSize=24;html=1;entryX=0.01;entryY=0.167;entryDx=0;entryDy=0;entryPerimeter=0;" parent="1" target="22" edge="1"><mxGeometry width="160" relative="1" as="geometry"><mxPoint x="373" y="520" as="sourcePoint"/><mxPoint x="440" y="580" as="targetPoint"/></mxGeometry></mxCell><mxCell id="44" value="" style="endArrow=open;endFill=1;endSize=12;html=1;exitX=0.305;exitY=1.025;exitDx=0;exitDy=0;exitPerimeter=0;entryX=0.564;entryY=-0.007;entryDx=0;entryDy=0;entryPerimeter=0;" parent="1" source="21" target="22" edge="1"><mxGeometry width="160" relative="1" as="geometry"><mxPoint x="470" y="550" as="sourcePoint"/><mxPoint x="630" y="550" as="targetPoint"/></mxGeometry></mxCell><mxCell id="46" value="" style="endArrow=diamondThin;endFill=1;endSize=24;html=1;exitX=0.479;exitY=-0.025;exitDx=0;exitDy=0;exitPerimeter=0;entryX=0.447;entryY=1.009;entryDx=0;entryDy=0;entryPerimeter=0;" edge="1" parent="1" source="11" target="2"><mxGeometry width="160" relative="1" as="geometry"><mxPoint x="180" y="-210" as="sourcePoint"/><mxPoint x="340" y="-210" as="targetPoint"/></mxGeometry></mxCell><mxCell id="47" value="" style="endArrow=diamondThin;endFill=1;endSize=24;html=1;exitX=0.447;exitY=-0.031;exitDx=0;exitDy=0;exitPerimeter=0;" edge="1" parent="1" source="21" target="2"><mxGeometry width="160" relative="1" as="geometry"><mxPoint x="180" y="320" as="sourcePoint"/><mxPoint x="340" y="320" as="targetPoint"/></mxGeometry></mxCell><mxCell id="49" value="" style="endArrow=diamondThin;endFill=1;endSize=24;html=1;exitX=0;exitY=0.5;exitDx=0;exitDy=0;" edge="1" parent="1" source="17" target="23"><mxGeometry width="160" relative="1" as="geometry"><mxPoint x="260" y="360" as="sourcePoint"/><mxPoint x="420" y="360" as="targetPoint"/></mxGeometry></mxCell><mxCell id="50" value="" style="endArrow=open;endFill=1;endSize=12;html=1;exitX=1;exitY=0.863;exitDx=0;exitDy=0;exitPerimeter=0;" edge="1" parent="1" source="23"><mxGeometry width="160" relative="1" as="geometry"><mxPoint x="260" y="470" as="sourcePoint"/><mxPoint x="440" y="470" as="targetPoint"/></mxGeometry></mxCell><mxCell id="51" value="" style="endArrow=open;endFill=1;endSize=12;html=1;" edge="1" parent="1"><mxGeometry width="160" relative="1" as="geometry"><mxPoint x="190" y="470" as="sourcePoint"/><mxPoint x="350" y="470" as="targetPoint"/></mxGeometry></mxCell><mxCell id="52" value="" style="endArrow=open;endFill=1;endSize=12;html=1;exitX=0.5;exitY=0;exitDx=0;exitDy=0;entryX=0.137;entryY=1.004;entryDx=0;entryDy=0;entryPerimeter=0;" edge="1" parent="1" source="23" target="2"><mxGeometry width="160" relative="1" as="geometry"><mxPoint x="90" y="350" as="sourcePoint"/><mxPoint x="250" y="350" as="targetPoint"/></mxGeometry></mxCell><mxCell id="53" value="" style="endArrow=open;endFill=1;endSize=12;html=1;entryX=0.444;entryY=1.011;entryDx=0;entryDy=0;entryPerimeter=0;exitX=0.5;exitY=0;exitDx=0;exitDy=0;" edge="1" parent="1" source="17" target="13"><mxGeometry width="160" relative="1" as="geometry"><mxPoint x="311" y="360" as="sourcePoint"/><mxPoint x="414" y="320" as="targetPoint"/></mxGeometry></mxCell><mxCell id="54" value="" style="endArrow=open;endFill=1;endSize=12;html=1;entryX=0;entryY=1;entryDx=0;entryDy=0;" edge="1" parent="1" target="20"><mxGeometry width="160" relative="1" as="geometry"><mxPoint x="370" y="370" as="sourcePoint"/><mxPoint x="530" y="370" as="targetPoint"/></mxGeometry></mxCell></root></mxGraphModel></diagram></mxfile>